<?xml version="1.0" encoding="UTF-8" standalone="no"?>
<svg
   width="400"
   height="200"
   version="1.1"
   viewBox="0 0 105.83333 52.916662"
   id="svg67"
   sodipodi:docname="email_header_logo.svg"
   inkscape:export-filename="D:\Users\Nicolas\RubymineProjects\3DCloud-Server\app\assets\images\email_header_logo.png"
   inkscape:export-xdpi="96"
   inkscape:export-ydpi="96"
   inkscape:version="1.1 (c68e22c387, 2021-05-23)"
   xmlns:inkscape="http://www.inkscape.org/namespaces/inkscape"
   xmlns:sodipodi="http://sodipodi.sourceforge.net/DTD/sodipodi-0.dtd"
   xmlns="http://www.w3.org/2000/svg"
   xmlns:svg="http://www.w3.org/2000/svg">
  <sodipodi:namedview
     id="namedview45"
     pagecolor="#ffffff"
     bordercolor="#666666"
     borderopacity="1.0"
     inkscape:pageshadow="2"
     inkscape:pageopacity="0.0"
     inkscape:pagecheckerboard="0"
     inkscape:document-units="mm"
     showgrid="false"
     inkscape:zoom="2.9786873"
     inkscape:cx="189.51301"
     inkscape:cy="76.375925"
     inkscape:window-width="2560"
     inkscape:window-height="1377"
     inkscape:window-x="-8"
     inkscape:window-y="362"
     inkscape:window-maximized="1"
     inkscape:current-layer="svg67"
     units="px" />
  <defs
     id="defs5">
    <filter
       style="color-interpolation-filters:sRGB;"
       inkscape:label="Blur"
       id="filter7428"
       x="0"
       y="0"
       width="1"
       height="1" />
    <filter
       style="color-interpolation-filters:sRGB;"
       inkscape:label="Blur"
       id="filter7676"
       x="-0.023952073"
       y="-0.050337954"
       width="1.0479041"
       height="1.1006759">
      <feGaussianBlur
         stdDeviation="1 1"
         result="blur"
         id="feGaussianBlur7674" />
    </filter>
  </defs>
  <path
     id="path39-4"
     style="fill:#ffffff;fill-opacity:0.9;stroke-width:1.65235;filter:url(#filter7676)"
     d="m 29.43231,3.2466667 c 0,4.7924722 0,9.5849453 0,14.3774173 0.7829,0 1.565797,0 2.348696,0 0,-1.13068 0,-2.26136 0,-3.392041 0.499883,-0.468361 0.999765,-0.936721 1.49965,-1.405082 1.156058,1.599172 2.311644,3.198686 3.468005,4.79764 0.902269,0 1.804541,0 2.706812,0 -1.511316,-2.098884 -3.022007,-4.198217 -4.533058,-6.29729 1.542026,-1.5420253 3.084049,-3.0840501 4.626075,-4.6260748 -0.971344,0 -1.94269,0 -2.914033,0 -1.617798,1.5577198 -3.235638,3.1153964 -4.853451,4.6731008 0,-2.8856131 0,-5.7712251 0,-8.656837 -0.782899,0 -1.565796,0 -2.348696,0 0,0.1763889 0,0.3527777 0,0.5291667 z M 2.8173992,3.6259717 c 0,4.6662096 -3e-7,9.3324193 0,13.9986293 0.7954724,0 1.5909448,0 2.3864175,0 0,-3.170349 0,-6.340698 0,-9.5110481 1.352845,2.3545761 2.706048,4.7089471 4.0586668,7.0636521 0.4826579,0 0.9653155,0 1.4479735,0 1.346678,-2.352218 2.693005,-4.704637 4.039547,-7.056934 0,3.16811 0,6.33622 0,9.50433 0.795472,0 1.590945,0 2.386417,0 0,-4.842598 0,-9.6851976 0,-14.5277959 -0.727604,0 -1.455208,0 -2.182812,0 C 13.292108,5.9910694 11.630459,8.885248 9.9689003,11.77948 8.3191751,8.8852779 6.6697846,5.9908861 5.0198485,3.0968051 c -0.7341497,0 -1.4682996,0 -2.2024493,0 -3e-7,0.176389 0,0.3527777 0,0.5291666 z m 53.9315918,0 c -2e-6,4.6662096 0,9.3324193 0,13.9986293 1.225593,0 2.451185,0 3.676777,0 0,-1.50499 0,-3.00998 0,-4.51497 0.597551,0 1.195105,0 1.792656,0 0.92312,1.504985 1.846178,3.01001 2.76934,4.51497 1.373214,0 2.746431,0 4.119645,0 C 68.017529,15.82924 66.92842,14.033412 65.838874,12.23785 66.903541,11.605348 67.635611,10.500845 67.910582,9.303571 68.190789,8.1718629 68.045694,6.9525057 67.533064,5.907718 66.849738,4.4773027 65.46843,3.34928 63.876205,3.1406793 c -0.730274,-0.085312 -1.468258,-0.026351 -2.201831,-0.043874 -1.641795,0 -3.28359,0 -4.925383,0 0,0.176389 -2e-6,0.3527777 0,0.5291664 z M 63.0561,6.4506054 c 0.596476,0.00916 1.043662,0.5432743 1.220078,1.0712524 0.203542,0.7297933 0.02882,1.6269817 -0.603062,2.0959961 -0.364868,0.2272567 -0.811887,0.1078087 -1.216155,0.1379762 -0.677235,0 -1.354473,0 -2.031708,0 0,-1.1017416 0,-2.203483 0,-3.3052247 0.876948,0 1.753896,0 2.630847,0 z m 10.673765,0.014986 c -1.236073,0.022012 -2.473973,0.4142944 -3.448336,1.1858397 -1.172527,0.8898705 -1.915324,2.2825755 -2.080842,3.7378469 -0.178234,1.412515 0.123227,2.905878 0.964756,4.069484 0.912386,1.33959 2.456748,2.199889 4.066272,2.330954 1.410989,0.132328 2.898617,-0.121605 4.081582,-0.936149 0.779433,-0.520103 1.418905,-1.249436 1.800561,-2.107914 0.02657,-0.124162 0.243716,-0.332195 0.146079,-0.401693 -1.036757,-0.288377 -2.073532,-0.576693 -3.110063,-0.865876 1.128956,0 2.257914,0 3.386873,0 0.0974,-0.827339 0.176019,-1.6719 0.0041,-2.495568 C 79.259011,9.5283694 78.416223,8.1617634 77.156529,7.3590772 76.152475,6.6827254 74.926959,6.429035 73.729865,6.4655914 Z M 86.17355,6.465075 c -1.002451,0.013956 -1.987008,0.3861625 -2.757453,1.0257771 0,-0.2855984 0,-0.5711968 0,-0.8567952 -1.092785,-2e-7 -2.18557,0 -3.278355,0 0,5.0131311 0,10.0262621 0,15.0393921 1.200272,0 2.400544,0 3.600816,0 0,-1.614544 0,-3.229088 0,-4.843631 1.067673,0.921435 2.59384,1.171099 3.946405,0.875379 1.463538,-0.325659 2.631877,-1.477923 3.227618,-2.822218 0.59926,-1.299112 0.736484,-2.803093 0.420436,-4.195199 C 90.98776,9.2612416 90.127184,7.931844 88.858658,7.164257 88.056155,6.670997 87.113577,6.4339835 86.17355,6.465075 Z m 10.796756,0.00465 c -1.667065,0.057288 -3.347645,0.8294351 -4.324834,2.2086051 -1.36434,1.8490499 -1.478071,4.5102249 -0.296349,6.4776099 0.810506,1.419298 2.317274,2.392652 3.933486,2.597579 1.47541,0.198819 3.064309,-0.01273 4.309761,-0.874316 1.13198,-0.759804 1.92801,-1.969608 2.24308,-3.290524 0.48694,-1.963364 -0.0578,-4.2014373 -1.54189,-5.6089687 -1.06467,-1.0090367 -2.541399,-1.5304429 -3.999758,-1.5167033 -0.107839,0.00116 -0.215665,0.00467 -0.323496,0.00672 z M 22.973274,6.520368 c -1.470313,0.058361 -2.847417,0.7082454 -4.03304,1.5438882 -0.193662,0.074379 -0.232095,0.1872898 -0.09003,0.345004 0.295011,0.5449726 0.590167,1.0898674 0.885023,1.6349238 0.899549,-0.6143809 1.856965,-1.2468933 2.967318,-1.3673801 0.774434,-0.08573 1.668393,0.052419 2.184449,0.6942175 0.372824,0.4421592 0.483345,1.0439096 0.464944,1.6059226 -1.125992,-0.252857 -2.300319,-0.350055 -3.446924,-0.19083 -1.177181,0.172472 -2.38129,0.68965 -3.076188,1.696009 -0.741924,1.058854 -0.681769,2.553548 -0.0078,3.628985 0.638709,0.992406 1.772033,1.611053 2.941502,1.688979 1.365704,0.09717 2.777916,-0.294306 3.867916,-1.130984 0.192277,0.548022 0.713219,0.961107 1.298658,0.988474 0.415978,0.05013 0.831197,-0.05762 1.246405,-0.08207 0,-0.654568 0,-1.309136 0,-1.963704 -0.15112,-0.03373 -0.351229,-0.02195 -0.474388,-0.08165 -0.0054,-1.622629 0.01088,-3.245661 -0.0081,-4.868043 C 27.655215,9.5116679 27.219407,8.3385869 26.333276,7.5735344 25.427492,6.7541206 24.167288,6.4682701 22.973274,6.520368 Z M 43.5684,6.522438 c -1.164632,0.020971 -2.307376,0.4489831 -3.211174,1.1813233 -1.21983,0.9617268 -1.967619,2.4658057 -2.051449,4.0118017 -0.09242,1.317194 0.237947,2.671391 1.002212,3.756307 0.908534,1.350668 2.456804,2.260082 4.089093,2.337573 1.426657,0.100138 2.911049,-0.326724 3.983038,-1.293503 0.538493,-0.46649 0.936336,-1.072663 1.206293,-1.728493 0.0433,-0.137475 0.252452,-0.351866 -0.01029,-0.347398 -0.668779,-0.181663 -1.337673,-0.362909 -2.006354,-0.544934 -0.186529,0.435665 -0.386218,0.891259 -0.777732,1.183884 -0.935543,0.769555 -2.341412,0.935444 -3.402605,0.328019 -0.823987,-0.477137 -1.417564,-1.31885 -1.604841,-2.251393 2.764861,0 5.529723,0 8.294584,0 0.07898,-0.389685 0.118388,-0.784159 0.09566,-1.181825 C 49.158278,10.077356 48.11591,8.2205523 46.484518,7.2458699 45.617624,6.7059765 44.581474,6.4905879 43.5684,6.5224356 Z m 11.745018,0.1080039 c -1.058222,-0.0044 -2.083639,0.460856 -2.83341,1.1969218 -0.141248,0.1951213 -0.0811,-0.083533 -0.09251,-0.1991534 0,-0.3138136 0,-0.6276274 0,-0.9414412 -0.757576,0 -1.515152,0 -2.272728,0 0,3.6473229 0,7.2946459 0,10.9419679 0.782897,0 1.565793,0 2.348693,0 0,-2.19487 0,-4.389741 0,-6.584611 0.298873,-0.905633 1.036875,-1.6401144 1.939158,-1.9453153 0.543411,-0.205836 1.129889,-0.2176841 1.702995,-0.2385308 0,-0.7152019 0,-1.4304037 0,-2.1456055 -0.263951,-0.028582 -0.525965,-0.086743 -0.792199,-0.084232 z M 43.984912,8.5905266 c 1.111634,0.068156 2.130531,0.8083507 2.589358,1.8157044 0.113456,0.242947 0.198747,0.499055 0.251812,0.761917 -2.029679,0 -4.059356,0 -6.089033,0 0.225816,-1.2086204 1.187021,-2.2667744 2.402993,-2.5198341 0.277469,-0.059197 0.562031,-0.072214 0.84487,-0.057787 z m 30.06018,0.775663 c 0.717518,0.032649 1.392002,0.479737 1.69585,1.1319104 0.03442,0.110535 0.240532,0.370913 -0.0029,0.309346 -1.259184,0 -2.518365,0 -3.777549,0 0.241588,-0.8679804 1.114367,-1.5046783 2.017726,-1.4431473 0.0223,6.302e-4 0.0446,0.00126 0.0669,0.00189 z m 23.3748,0.3229777 c 0.756293,0.033683 1.402458,0.5861227 1.686679,1.2672297 0.407696,0.922332 0.316267,2.081372 -0.310237,2.88633 -0.395693,0.538183 -1.080167,0.834632 -1.743261,0.745737 -0.889778,-0.07525 -1.58687,-0.846451 -1.760228,-1.692957 -0.209409,-0.939892 -0.03539,-2.039148 0.704131,-2.7102 0.384355,-0.3511424 0.901917,-0.5402338 1.422916,-0.4961397 z m -11.67474,-0.00103 c 0.952971,0.035835 1.783025,0.7904727 2.002187,1.7035967 0.263493,1.018697 -0.03937,2.236655 -0.914421,2.873496 -0.667695,0.503338 -1.660933,0.421323 -2.279134,-0.124469 -0.360159,-0.293091 -0.651015,-0.688205 -0.815226,-1.11908 0.0066,-0.710669 -0.01314,-1.426367 0.0097,-2.133925 0.229632,-0.551688 0.772491,-0.9184814 1.321938,-1.1050161 0.216876,-0.074105 0.445593,-0.1111004 0.674907,-0.094603 z M 23.150008,12.638859 c 0.747746,-0.0026 1.491577,0.131978 2.202966,0.357601 -0.01344,0.387627 0.02722,0.781479 -0.0209,1.165209 -0.304036,0.797919 -1.105156,1.27229 -1.894232,1.488892 -0.703288,0.166257 -1.52208,0.223751 -2.145453,-0.207214 -0.610055,-0.38203 -0.915798,-1.253699 -0.544962,-1.897913 0.379899,-0.566309 1.090986,-0.781763 1.735108,-0.867006 0.221153,-0.02896 0.444571,-0.03848 0.66747,-0.03957 z m 52.914083,0.839225 c -0.168384,0.368489 -0.317709,0.778533 -0.681012,1.002417 -0.77666,0.546325 -1.927111,0.590274 -2.688809,-0.0061 -0.316476,-0.256588 -0.554321,-0.606682 -0.673862,-0.996322 1.347896,0 2.695789,0 4.043683,0 z m -73.2477255,11.0262 c 0,8.628758 0,17.257516 0,25.886274 0.959976,9e-5 1.9199518,-6.06e-4 2.8799276,-5.16e-4 0,-3.19033 0,-6.38066 0,-9.570992 2.8628557,-0.0034 5.7258589,0.0069 8.5886229,-0.0052 1.402118,-0.03772 2.803212,-0.484524 3.916023,-1.349793 1.719309,-1.263494 2.877829,-3.212071 3.312318,-5.288185 0.337998,-1.626219 0.213383,-3.356086 -0.435419,-4.891336 -0.619326,-1.597076 -1.731051,-2.998118 -3.13236,-3.98071 -1.04022,-0.723655 -2.257377,-1.211864 -3.527753,-1.302386 -0.945082,-0.05543 -1.893124,-0.0131 -2.839414,-0.02635 -2.9206483,0 -5.8412969,0 -8.7619455,0 0,0.176389 0,0.352777 0,0.529166 z m 22.1779745,0 c 0,8.628758 0,17.257516 0,25.886274 0.959976,9e-5 1.919952,-6.06e-4 2.879927,-5.16e-4 0,-3.19033 0,-6.38066 0,-9.570992 2.465138,0 4.930277,0 7.395413,0 2.047558,3.190354 4.095406,6.380522 6.142778,9.570992 1.121551,0 2.243104,0 3.364654,0 -2.141345,-3.339523 -4.283332,-6.678633 -6.424933,-10.017992 1.298707,-0.314693 2.455238,-1.074021 3.3597,-2.045589 1.807986,-1.928765 2.582434,-4.729271 2.152111,-7.323865 -0.229778,-1.247873 -0.726649,-2.449243 -1.445223,-3.494937 -0.763508,-1.079237 -1.72738,-2.039371 -2.902276,-2.663774 -1.11783,-0.63595 -2.416122,-0.904036 -3.695319,-0.868767 -3.608943,0 -7.217888,0 -10.826832,0 0,0.176389 0,0.352777 0,0.529166 z m 23.178947,0 c 0,8.628758 0,17.257516 0,25.886274 0.959975,0 1.919952,0 2.879927,0 0,-8.805145 0,-17.610293 0,-26.41544 -0.959975,0 -1.919952,0 -2.879927,0 0,0.176389 0,0.352777 0,0.529166 z m 33.391758,0.0031 c 0,0.723987 0,1.447973 0,2.17196 3.095075,0 6.190149,0 9.285221,0 0,7.904772 0,15.809543 0,23.714314 0.959978,0 1.919952,0 2.879929,0 0,-7.904771 0,-15.809542 0,-23.714314 3.095247,0 6.190491,0 9.285735,0 -1.1e-4,-0.900375 6.3e-4,-1.800751 5.2e-4,-2.701127 -7.150469,0 -14.300937,0 -21.451405,0 0,0.176389 0,0.352778 0,0.529167 z m -24.935428,0.0021 c 0,8.628585 0,17.257171 0,25.885758 0.959977,0 1.919951,0 2.879928,0 0,-6.990959 0,-13.98192 0,-20.972881 5.536004,6.990898 11.071363,13.982306 16.607772,20.972881 0.856795,0 1.71359,0 2.570384,0 0,-8.804974 0,-17.60995 0,-26.414925 -0.959802,0 -1.919605,0 -2.87941,0 0,7.109988 0,14.219977 0,21.329964 -5.631254,-7.109928 -11.261912,-14.22033 -16.893542,-21.329964 -0.761709,0 -1.523421,0 -2.285132,0 0,0.176389 0,0.352778 0,0.529167 z m -42.935879,2.166793 c 0.995933,-0.01522 1.977722,0.339366 2.759204,0.951601 0.977555,0.729361 1.666213,1.799061 2.057051,2.944257 0.299892,0.930973 0.331894,1.93222 0.185506,2.894425 -0.01613,0.08957 -0.04854,0.287565 -0.08058,0.417962 -0.03515,0.156311 -0.06391,0.269129 -0.101706,0.399722 -0.379727,1.356934 -1.234836,2.620854 -2.4886,3.30504 -0.772079,0.427149 -1.672124,0.523132 -2.540271,0.493014 -2.596018,0 -5.1920346,0 -7.7880519,0 0,-3.802007 0,-7.604014 0,-11.406021 2.6658149,0 5.3316299,0 7.9974449,0 z m 22.283912,0 c 0.947375,-0.01295 1.887431,0.302557 2.641123,0.875464 1.051171,0.723398 1.78798,1.835695 2.205091,3.028691 0.518967,1.60583 0.289922,3.404452 -0.493197,4.886272 -0.634381,1.23353 -1.776513,2.276274 -3.170549,2.53003 -0.795719,0.148006 -1.60945,0.06273 -2.413506,0.08556 -2.290781,0 -4.581562,0 -6.872345,0 0,-3.802007 0,-7.604014 0,-11.406021 2.701128,0 5.402254,0 8.103383,0 z" />
  <g
     id="g2059"
     transform="matrix(1.6523471,0,0,1.6523471,0.04103609,0.27433669)">
    <path
       d="M 9.222,10.18 V 3.5439 L 6.2714,8.6989 H 5.76623 L 2.80413,3.5439 V 10.18 H 2.00045 V 2.0284 h 0.82664 l 3.1803,5.5798 3.2032,-5.5798 h 0.81516 V 10.18 Z"
       id="path39" />
    <path
       d="m 11.368,8.46 q 0,-0.56257 0.32147,-0.96441 0.32147,-0.41332 0.88404,-0.63146 0.57406,-0.22962 1.3203,-0.22962 0.43628,0 0.90701,0.0689 0.47073,0.0689 0.83812,0.20666 V 6.4049 q 0,-0.75775 -0.44776,-1.2055 -0.44776,-0.44775 -1.24,-0.44776 -0.48221,0 -0.95293,0.18369 -0.45924,0.17222 -0.96441,0.51665 L 11.73533,4.90089 q 0.58554,-0.40184 1.1481,-0.59702 0.56257,-0.20666 1.1481,-0.20666 1.1022,0 1.7451,0.63146 0.6429,0.63146 0.64294,1.7451 v 2.767 q 0,0.16073 0.06889,0.2411 0.06889,0.0689 0.21814,0.0804 v 0.61998 q -0.12629,0.0115 -0.21814,0.023 -0.09185,0.0115 -0.13777,0 -0.28703,-0.0115 -0.43628,-0.1837 Q 15.76516,9.84933 15.75367,9.65416 L 15.74219,9.21787 q -0.40184,0.51665 -1.0448,0.80368 -0.64294,0.27555 -1.3088,0.27555 -0.57406,0 -1.0448,-0.24111 Q 11.88455,9.80341 11.62048,9.39009 11.3679,8.96529 11.3679,8.46012 Z m 4.0069,0.45925 Q 15.50119,8.75851 15.57008,8.60926 15.63897,8.46 15.63897,8.34519 V 7.47263 Q 15.24861,7.32337 14.82381,7.243 14.41049,7.1626 13.98569,7.1626 q -0.83812,0 -1.3548,0.33295 -0.51665,0.33295 -0.51665,0.90701 0,0.33295 0.17222,0.63146 0.17222,0.28702 0.50517,0.4822 0.33295,0.1837 0.78072,0.1837 0.56257,0 1.0448,-0.21814 0.49369,-0.21814 0.75775,-0.56257 z"
       id="path41" />
    <path
       d="m 22.379,10.18 -2.2159,-3.0655 -1.2744,1.194 v 1.8714 H 18.10798 V 1.7987 h 0.78072 v 5.6717 l 3.3869,-3.2606 h 0.86108 l -2.4455,2.4455 2.5373,3.5247 z"
       id="path43" />
    <path
       d="m 26.466,10.3 q -0.64294,0 -1.194,-0.24111 Q 24.72091,9.80631 24.31907,9.38151 23.91723,8.94523 23.68761,8.38265 23.46947,7.82008 23.46947,7.17715 q 0,-0.83812 0.37888,-1.5385 0.39036,-0.70035 1.0677,-1.1137 0.67738,-0.4248 1.5385,-0.4248 0.88405,0 1.5385,0.4248 0.6659,0.4248 1.0448,1.1252 0.37888,0.68887 0.37888,1.5155 0,0.0919 0,0.18369 0,0.0804 -0.0115,0.1263 h -5.1206 q 0.05741,0.64294 0.35591,1.1481 0.30999,0.49368 0.7922,0.79219 0.49369,0.28703 1.0677,0.28703 0.58553,0 1.1022,-0.29851 0.52813,-0.29851 0.73479,-0.78071 l 0.67739,0.18369 q -0.1837,0.4248 -0.56258,0.76924 -0.37887,0.34443 -0.89552,0.53961 -0.50517,0.1837 -1.0907,0.1837 z M 24.2616,6.9131 h 4.4202 Q 28.6359,6.25868 28.32588,5.765 28.02737,5.27132 27.53369,4.99577 27.05148,4.70874 26.46599,4.70874 q -0.58549,0 -1.0677,0.28703 -0.48221,0.27555 -0.7922,0.78071 -0.29851,0.49369 -0.34443,1.1366 z"
       id="path45" />
    <path
       d="m 33.61,4.89 q -0.78072,0.023 -1.3777,0.43628 -0.58554,0.41332 -0.82664,1.1366 v 3.7199 h -0.78072 v -5.9817 h 0.73479 v 1.4351 q 0.30999,-0.63146 0.81516,-1.0218 0.51665,-0.39035 1.0907,-0.43628 0.11482,-0.0115 0.19518,-0.0115 0.0919,0 0.14926,0.0115 z"
       id="path47" />
    <path
       d="M 34.64,10.18 V 2.0284 h 3.6051 q 0.56257,0 1.0333,0.22962 0.4822,0.22962 0.82664,0.61998 0.35591,0.39035 0.53961,0.87256 0.19518,0.48221 0.19518,0.98737 0,0.51665 -0.1837,0.99886 -0.17222,0.47073 -0.50517,0.82664 -0.33295,0.35591 -0.78071,0.55109 l 1.8599,3.0655 h -1.7451 l -1.6762,-2.7325 h -1.5844 v 2.7325 z m 1.5844,-4.1217 h 1.9862 q 0.2985,0 0.52813,-0.17222 0.22962,-0.18369 0.36739,-0.4822 0.13777,-0.29851 0.13777,-0.66591 0,-0.39035 -0.16073,-0.67738 Q 38.92242,3.76208 38.66984,3.58986 38.42874,3.41765 38.14171,3.41765 h -1.9173 z"
       id="path49" />
    <path
       d="m 44.71,10.3 q -0.72331,0 -1.3088,-0.24111 Q 42.81567,9.80631 42.40235,9.38151 41.98903,8.94523 41.75941,8.39413 41.54126,7.83156 41.54126,7.21153 q 0,-0.86108 0.37888,-1.5729 0.39036,-0.71183 1.1022,-1.1366 0.72331,-0.43628 1.6992,-0.43628 0.98737,0 1.6877,0.43628 0.70035,0.4248 1.0677,1.1366 0.37888,0.70035 0.37888,1.5155 0,0.13777 -0.0115,0.28702 -0.0115,0.13778 -0.023,0.22963 h -4.6498 q 0.0459,0.45924 0.26407,0.80367 0.22962,0.34444 0.57405,0.52813 0.35592,0.17222 0.75775,0.17222 0.45925,0 0.86109,-0.21814 0.41332,-0.22962 0.56257,-0.59702 l 1.3203,0.3674 q -0.21814,0.45924 -0.63146,0.81515 -0.40184,0.35592 -0.95293,0.56258 -0.5511,0.19518 -1.217,0.19518 z M 43.1371,6.6949 h 3.1458 Q 46.237,6.23566 46.01883,5.90271 45.81217,5.55827 45.46774,5.37458 45.12331,5.1794 44.69851,5.1794 q -0.41332,0 -0.75776,0.19518 Q 43.6078,5.55827 43.38966,5.90271 43.183,6.23566 43.13708,6.6949 Z"
       id="path51" />
    <path
       d="m 52.4,10.3 q -0.70035,0 -1.24,-0.30999 -0.52813,-0.32147 -0.82664,-0.86108 v 3.5017 h -1.5385 v -8.4616 h 1.3433 v 1.0333 q 0.34443,-0.52813 0.87256,-0.82664 0.52813,-0.30999 1.2055,-0.30999 0.6085,0 1.1137,0.2411 0.51665,0.24111 0.89552,0.67739 0.37888,0.4248 0.58554,0.98737 0.21814,0.5511 0.21814,1.194 0,0.87256 -0.34443,1.5844 -0.33296,0.71183 -0.92997,1.1366 -0.58554,0.41332 -1.3548,0.41332 z M 51.88335,8.9912 q 0.35591,0 0.64294,-0.14925 0.28703,-0.14926 0.49369,-0.40184 0.21814,-0.26407 0.32147,-0.58554 0.11481,-0.33295 0.11481,-0.68886 0,-0.37888 -0.12629,-0.70035 Q 53.21516,6.14389 52.98553,5.90279 52.75591,5.6502 52.44592,5.51243 52.14741,5.37466 51.7915,5.37466 q -0.21814,0 -0.44776,0.0804 -0.21814,0.0689 -0.4248,0.20666 -0.20666,0.13778 -0.3674,0.32147 -0.14925,0.1837 -0.21814,0.40184 v 1.4122 q 0.13777,0.33295 0.36739,0.6085 0.24111,0.27554 0.5511,0.43628 0.30999,0.14925 0.63146,0.14925 z"
       id="path53" />
    <path
       d="m 58.85,10.3 q -0.73479,0 -1.3203,-0.24111 Q 56.94417,9.80631 56.53085,9.37003 56.12901,8.93375 55.91087,8.37117 55.69273,7.8086 55.69273,7.18857 q 0,-0.63146 0.21814,-1.194 Q 56.12901,5.432 56.53085,4.99572 56.94417,4.55944 57.5297,4.31833 58.11524,4.06575 58.85,4.06575 q 0.73476,0 1.3088,0.25258 0.58553,0.24111 0.99885,0.67739 0.41332,0.43628 0.61998,0.99885 0.21814,0.56258 0.21814,1.194 0,0.61998 -0.21814,1.1826 -0.20666,0.56258 -0.61998,0.99886 -0.40184,0.43628 -0.98737,0.68886 Q 59.58474,10.3 58.84998,10.3 Z M 57.2771,7.1886 q 0,0.52813 0.20666,0.94145 0.20666,0.40184 0.56257,0.63146 0.35592,0.22962 0.80368,0.22962 0.43628,0 0.7922,-0.22962 0.35591,-0.2411 0.56257,-0.64294 0.21814,-0.41332 0.21814,-0.94145 0,-0.51665 -0.21814,-0.92997 -0.20666,-0.41332 -0.56257,-0.64294 -0.35592,-0.22962 -0.7922,-0.22962 -0.44776,0 -0.80368,0.2411 Q 57.69042,5.84531 57.48376,6.25863 57.2771,6.66047 57.2771,7.1886 Z"
       id="path55" />
    <path
       d="M 2,30.01 V 14.664 h 6.3113 q 0.97262,0 1.7723,0.41066 0.82133,0.41066 1.4265,1.1023 0.60519,0.67003 0.9294,1.513 0.34582,0.84294 0.34582,1.7291 0,1.232 -0.56196,2.3343 -0.54035,1.0807 -1.513,1.7723 -0.95101,0.69164 -2.2695,0.69164 h -5.3386 v 5.7925 z m 1.1023,-6.8084 h 5.2954 q 1.0159,0 1.7507,-0.54035 0.73487,-0.54035 1.1239,-1.4049 0.38905,-0.86456 0.38905,-1.8372 0,-1.0158 -0.4755,-1.8588 -0.45389,-0.86456 -1.232,-1.3833 -0.75649,-0.51873 -1.6859,-0.51873 h -5.1657 z"
       id="path57" />
    <path
       d="M 15.422,30.01 V 14.664 h 6.3761 q 0.99424,0 1.794,0.41066 0.82133,0.41066 1.4049,1.1023 0.60519,0.67003 0.9294,1.513 0.34582,0.84294 0.34582,1.7291 0,1.1455 -0.45389,2.1398 -0.45389,0.9943 -1.2752,1.6643 -0.79971,0.67003 -1.8804,0.82133 l 3.8257,5.9654 h -1.2752 l -3.7176,-5.7925 h -4.9712 v 5.7925 z m 1.1023,-6.8084 h 5.3819 q 0.99424,0 1.7291,-0.54035 0.73487,-0.54035 1.1239,-1.4049 0.41066,-0.86456 0.41066,-1.8372 0,-0.99424 -0.4755,-1.8372 -0.45389,-0.86455 -1.232,-1.3833 -0.75649,-0.54034 -1.7075,-0.54034 h -5.2306 z"
       id="path59" />
    <path
       d="M 29.45,30.01 V 14.664 h 1.1023 V 30.01 Z"
       id="path61" />
    <path
       d="M 35.67,16.72 V 30.013 H 34.5677 V 14.667 h 0.90779 l 10.699,13.509 V 14.667 h 1.1023 v 15.346 h -1.0807 z"
       id="path63" />
    <path
       d="M 62,15.66 H 56.3804 V 30.012 H 55.2781 V 15.66 h -5.6196 v -0.99424 h 12.342 z"
       id="path65" />
  </g>
</svg>
